<mxfile host="65bd71144e">
    <diagram id="gLhgZk_1vYngaE1ksDlS" name="第 1 页">
        <mxGraphModel dx="750" dy="659" grid="1" gridSize="10" guides="1" tooltips="1" connect="1" arrows="1" fold="1" page="1" pageScale="1" pageWidth="827" pageHeight="1169" math="0" shadow="0">
            <root>
                <mxCell id="0"/>
                <mxCell id="1" parent="0"/>
                <mxCell id="6" value="局部变量/参数" style="rounded=0;whiteSpace=wrap;html=1;" vertex="1" parent="1">
                    <mxGeometry x="180" y="300" width="120" height="30" as="geometry"/>
                </mxCell>
                <mxCell id="7" value="局部变量/参数" style="rounded=0;whiteSpace=wrap;html=1;" vertex="1" parent="1">
                    <mxGeometry x="180" y="330" width="120" height="30" as="geometry"/>
                </mxCell>
                <mxCell id="8" value="......" style="rounded=0;whiteSpace=wrap;html=1;fontSize=15;fontStyle=1" vertex="1" parent="1">
                    <mxGeometry x="180" y="360" width="120" height="30" as="geometry"/>
                </mxCell>
                <mxCell id="9" value="临时变量" style="rounded=0;whiteSpace=wrap;html=1;" vertex="1" parent="1">
                    <mxGeometry x="180" y="420" width="120" height="30" as="geometry"/>
                </mxCell>
                <mxCell id="10" value="临时变量" style="rounded=0;whiteSpace=wrap;html=1;" vertex="1" parent="1">
                    <mxGeometry x="180" y="480" width="120" height="30" as="geometry"/>
                </mxCell>
                <mxCell id="11" value="&lt;font style=&quot;font-size: 15px;&quot;&gt;caller.fp&lt;/font&gt;" style="endArrow=classic;html=1;entryX=1;entryY=0;entryDx=0;entryDy=0;strokeWidth=1;fontSize=15;" edge="1" parent="1" target="7">
                    <mxGeometry width="50" height="50" relative="1" as="geometry">
                        <mxPoint x="430" y="330" as="sourcePoint"/>
                        <mxPoint x="410" y="310" as="targetPoint"/>
                    </mxGeometry>
                </mxCell>
                <mxCell id="12" value="&lt;span style=&quot;font-size: 15px ; font-weight: 700&quot;&gt;......&lt;/span&gt;" style="rounded=0;whiteSpace=wrap;html=1;" vertex="1" parent="1">
                    <mxGeometry x="180" y="450" width="120" height="30" as="geometry"/>
                </mxCell>
                <mxCell id="13" value="sp before call" style="endArrow=classic;html=1;entryX=1;entryY=0;entryDx=0;entryDy=0;strokeWidth=1;fontSize=15;" edge="1" parent="1">
                    <mxGeometry width="50" height="50" relative="1" as="geometry">
                        <mxPoint x="450" y="510" as="sourcePoint"/>
                        <mxPoint x="300" y="510" as="targetPoint"/>
                    </mxGeometry>
                </mxCell>
                <mxCell id="14" value="局部变量/参数" style="rounded=0;whiteSpace=wrap;html=1;" vertex="1" parent="1">
                    <mxGeometry x="180" y="390" width="120" height="30" as="geometry"/>
                </mxCell>
                <mxCell id="16" value="全局寄存器保存" style="rounded=0;whiteSpace=wrap;html=1;" vertex="1" parent="1">
                    <mxGeometry x="180" y="570" width="120" height="30" as="geometry"/>
                </mxCell>
                <mxCell id="17" value="全局寄存器保存" style="rounded=0;whiteSpace=wrap;html=1;" vertex="1" parent="1">
                    <mxGeometry x="180" y="630" width="120" height="30" as="geometry"/>
                </mxCell>
                <mxCell id="18" value="&lt;span style=&quot;font-size: 15px ; font-weight: 700&quot;&gt;......&lt;/span&gt;" style="rounded=0;whiteSpace=wrap;html=1;" vertex="1" parent="1">
                    <mxGeometry x="180" y="600" width="120" height="30" as="geometry"/>
                </mxCell>
                <mxCell id="19" value="caller.fp" style="rounded=0;whiteSpace=wrap;html=1;" vertex="1" parent="1">
                    <mxGeometry x="180" y="510" width="120" height="30" as="geometry"/>
                </mxCell>
                <mxCell id="20" value="caller.ra" style="rounded=0;whiteSpace=wrap;html=1;" vertex="1" parent="1">
                    <mxGeometry x="180" y="540" width="120" height="30" as="geometry"/>
                </mxCell>
                <mxCell id="22" value="传参" style="rounded=0;whiteSpace=wrap;html=1;" vertex="1" parent="1">
                    <mxGeometry x="180" y="660" width="120" height="30" as="geometry"/>
                </mxCell>
                <mxCell id="23" value="传参" style="rounded=0;whiteSpace=wrap;html=1;" vertex="1" parent="1">
                    <mxGeometry x="180" y="720" width="120" height="30" as="geometry"/>
                </mxCell>
                <mxCell id="24" value="&lt;span style=&quot;font-size: 15px ; font-weight: 700&quot;&gt;......&lt;/span&gt;" style="rounded=0;whiteSpace=wrap;html=1;" vertex="1" parent="1">
                    <mxGeometry x="180" y="690" width="120" height="30" as="geometry"/>
                </mxCell>
                <mxCell id="25" value="callee.fp / sp after call" style="endArrow=classic;html=1;entryX=1;entryY=0;entryDx=0;entryDy=0;strokeWidth=1;fontSize=15;" edge="1" parent="1">
                    <mxGeometry width="50" height="50" relative="1" as="geometry">
                        <mxPoint x="480" y="660" as="sourcePoint"/>
                        <mxPoint x="300" y="660" as="targetPoint"/>
                    </mxGeometry>
                </mxCell>
            </root>
        </mxGraphModel>
    </diagram>
</mxfile>